<svg xmlns="http://www.w3.org/2000/svg" width="46" height="8" fill="#3b0084" fill-rule="evenodd"><path d="M39.760112.504363c-.15175.05648-.28182.12323-.416895.215654-.38688.263578-.576983.556252-.740406 1.146734l-.0767.253308c-.01334.03423-.025014.112962-.025014.172866 0 .215654.148415.414193.411893.552828.1651.0873.31017.124943.49027.124943.185102 0 .276818-.03252.361865-.126654.056698-.063327.06837-.092423.086714-.193404.015008-.094135.015008-.136923-.001668-.191693-.045025-.157462-.14508-.172866-.4686-.073596-.29016.090712-.37854.102693-.46192.06504s-.118398-.106116-.13007-.246462c-.018343-.229347.063368-.552828.208448-.824964.091717-.171154.336852-.436444.49027-.528867.29016-.174577.596994-.225924.970532-.164308.795436.1318 1.480812.78902 1.714274 1.643082.06837.24475.078376.2978.098387.513463.040022.427886-.02168.816406-.181766 1.146734-.080044.16602-.183434.32006-.49027.734252-.6687.89685-1.005552 1.259696-1.600878 1.7184-.485266.373116-.817115.551117-1.030565.551117-.188437 0-.40022-.058192-1.22067-.335462l-2.581416-.98756-1.800988-.878022-1.042238-.518598c-.973868-.441578-1.807658-.66408-2.76485-.739387-.33685-.025673-1.182315-.01198-1.5792.027385-.286824.027385-.353527.041077-.792.14377s-.805442.1335-.908832.07873c-.060033-.030808-.065036-.071885-.011673-.094135.858804-.361136 1.098936-.446713 1.569194-.557963.84213-.19854 1.477477-.278982 2.2896-.292674 1.315722-.02225 2.402985.136923 3.84044.563098.560307.16602 1.022227.352578 1.929392.780464l1.719276.73254c.2.07702.652024.213943.845464.25502.221788.046212.501942.06504.708722.0428l.416895-.03423c.373538-.029096.598662-.104404.822118-.278982.188437-.147193.301832-.326905.291827-.462117-.01334-.18998-.24847-.12323-.61367.172866-.196775.159174-.333516.236193-.575316.316636l-.216786.071885-.333516-.001712c-.301832 0-.35186-.005135-.525288-.046212-.460252-.11125-.915502-.278982-1.78598-.658944l-.8071-.350866-.48193-.217366c-.680373-.326905-1.180648-.506617-1.986-.7103-.383544-.097558-.722063-.164308-1.170642-.231058-.650357-.097558-.933846-.12152-1.624224-.1318-1.270697-.02054-2.04112.07702-3.241778.405636-.515283.142058-.55197.15575-1.058914.402213-.460252.224212-.53696.248174-.837126.263578-.2268.01198-.251805.017115-.350192.06675-.190104.095846-.27682.207097-.42023.537425-.06837.157462-.173428.272135-.286824.3115-.086714.029096-.22846.14377-.460252.36456-.208448.19854-.203445.18998-.15842.280693.050027.097558.105058.107827.201777.035942.205113-.150616.680373-.414193.747076-.414193.053363 0 .098387.03423.1234.094135s.126736.14377.245134.196827.355195.1.603664.092423c.218453.001712.238464-.001712.315173-.041077.101722-.053058.140077-.104404.153418-.207097.008338-.068462.005003-.085577-.025014-.116385-.046692-.047923-.0767-.041077-.328514.059904-.333516.135212-.466923.150616-.568645.070173-.023346-.018827-.086714-.05648-.140077-.082154-.236797-.114673-.173428-.2653.15175-.359424.066703-.02054.2618-.102693.431904-.186558.595327-.28754.803774-.359424.947186-.323482.18677.046212.450247.19854.838793.486078.078376.058192.240132.162597.35853.23448.398552.236193 1.692595.89685 2.39298 1.22033l.935513.438155c.466923.225924 1.188986.482655 2.15785.76677 1.294043.37825 2.2279.518598 3.260122.491213.395217-.01027.8488-.053058 1.157302-.106116.278486-.047923.4686-.104404.768755-.225924.423566-.169443.466923-.181424.658695-.169443.086714.005135.260143.03423.383544.061616.280154.06504.391882.080443.715393.104404.33185.023962 1.04057.023962 1.285705.001712.803774-.07702 1.56586-.294385 2.091147-.595617.407-.23277.653692-.434732 1.160637-.946483.176764-.178.273483-.468963.263478-.783887-.003335-.15575-.011673-.196827-.046692-.267-.053363-.107827-.136742-.15575-.26848-.15575-.218453 0-.25514.095846-.17176.458694.060033.260155.065036.486078.010006.590482s-.3452.3988-.53696.54427c-.20678.159174-.617005.41077-.908832.556252-.35186.178-.653692.270424-1.11728.34402-.230126.035942-.305167.039365-.908832.037654-.548634 0-.72373-.006846-1.050576-.037654l-.667033-.092423c.8905-.534 1.315722-.859195 1.752628-1.333292.398552-.4313.638684-.74452.88215-1.146734.3452-.569944.4836-1.049176.46192-1.59858-.033352-.835233-.42023-1.5866-1.0956-2.12916-.105058-.085577-.37854-.224212-.525288-.267-.355195-.104404-.918837-.14548-1.100604-.07873zM29.587865 3.737468c.533626.03423 1.073922.157462 1.91772.434732.623675.205385 1.00055.379963 1.83434.85235.722063.40906 2.858235 1.377792 3.231773 1.46337.066703.015404.3452.106116.62034.20025l1.24735.393655c.106725.029096.195107.059904.195107.06675s-.02835.018827-.0617.023962-.170093.0445-.300165.085577c-.581986.184847-1.072255.249885-1.891037.248174-.513615 0-.725398-.01027-1.28237-.070173-.445244-.046212-.700384-.090712-.983873-.169443l-2.2679-.723983c-.105058-.051346-.258475-.114673-.341854-.140347-.411893-.128366-1.574197-.696598-3.101702-1.513004l-.670368-.397078c-.066703-.05477-.13174-.10098-.143412-.10098-.0417 0-.678706-.371405-.678706-.395366 0-.006846.050027-.02054.113396-.03252l.395217-.094135c.340187-.090712.563643-.126654.908832-.14548.313505-.015404.8955-.01027 1.259024.013692zm-3.463567.203674c.058365.015404.098387.03252.091717.039366s-.100055.041077-.205113.07702-.2418.1-.3035.12152l-.23346.107827-.355195.162597c-.333516.160885-.363533.152327-.09672-.027385l.53863-.338886.258475-.157462c.056698-.03423.126736-.030808.305167.015404zm-.788766.005135c-.00667.01027-.045025.035942-.088382.058192s-.093385.058192-.111728.07873c-.040022.0445-.120066.090712-.14508.082154-.02-.006846.1651-.15575.256808-.207097.060033-.03252.105058-.039365.088382-.01198zM6.239888.504363c.15175.05648.28182.12323.416895.215654.38688.263578.576983.556252.740406 1.146734l.0767.253308c.01334.03423.025014.112962.025014.172866 0 .215654-.148415.414193-.411893.552828-.1651.0873-.31017.124943-.49027.124943-.185102 0-.276818-.03252-.361865-.126654-.056698-.063327-.06837-.092423-.086714-.193404-.015008-.094135-.015008-.136923.001668-.191693.045025-.157462.14508-.172866.4686-.073596.29016.090712.37854.102693.46192.06504s.118398-.106116.13007-.246462c.018343-.229347-.063368-.552828-.208448-.824964-.091717-.171154-.33685-.436444-.49027-.528867-.290166-.17458-.59701-.225926-.97054-.1643-.795436.1318-1.480812.78902-1.714274 1.643082-.06837.24475-.078376.2978-.098387.513463-.040022.427886.02168.816406.181766 1.146734.080044.16602.183434.32006.49027.734252.6687.89685 1.005552 1.259696 1.600878 1.7184.485266.373116.817115.551117 1.030565.551117.188437 0 .40022-.058192 1.22067-.335462l2.581416-.98756 1.800988-.878022 1.042238-.518598c.973868-.441578 1.807658-.66408 2.76485-.739387.33685-.025673 1.182315-.01198 1.5792.027385.286824.027385.353527.041077.792.14377s.805442.1335.908832.07873c.060033-.030808.065036-.071885.011673-.094135-.858804-.361136-1.098936-.446713-1.569194-.557963-.84213-.19854-1.477477-.278982-2.2896-.292674-1.315722-.02225-2.402985.136923-3.84044.563098-.560307.16602-1.022227.352578-1.929392.780464L8.386066 4.915c-.2.07702-.652024.213943-.845464.25502-.221788.046212-.501942.06504-.708722.0428l-.416895-.03423c-.373538-.029096-.598662-.104404-.822118-.278982-.188437-.147193-.301832-.326905-.291827-.462117.01334-.18998.24847-.12323.61367.172866.196775.159174.333516.236193.575316.316636l.216786.071885.333516-.001712c.301832 0 .35186-.005135.525288-.046212.460252-.11125.915502-.278982 1.78598-.658944l.8071-.350866.48193-.217366c.680373-.326905 1.180648-.506617 1.986-.7103.383544-.097558.722063-.164308 1.170642-.231058.650357-.097558.933846-.12152 1.624224-.1318 1.270697-.02054 2.04112.07702 3.241778.405636.515283.142058.55197.15575 1.058914.402213.460252.224212.53696.248174.837126.263578.2268.01198.251805.017115.350192.06675.190104.095846.27682.207097.42023.537425.06837.157462.173428.272135.286824.3115.086714.029096.22846.14377.460252.36456.208448.19854.203445.18998.15842.280693-.050027.097558-.105058.107827-.201777.035942-.205113-.150616-.680373-.414193-.747076-.414193-.053363 0-.098387.03423-.1234.094135s-.126736.14377-.245134.196827-.355195.1-.603664.092423c-.218453.001712-.238464-.001712-.315173-.041077-.101722-.053058-.140077-.104404-.153418-.207097-.008338-.068462-.005003-.085577.025014-.116385.046692-.047923.0767-.041077.328514.059904.333516.135212.466923.150616.568645.070173.023346-.018827.086714-.05648.140077-.082154.236797-.114673.173428-.2653-.15175-.359424-.066703-.02054-.2618-.102693-.431904-.186558-.595327-.28754-.803774-.359424-.947186-.323482-.18677.046212-.450247.19854-.838793.486078-.078376.058192-.240132.162597-.35853.23448-.398552.236193-1.692595.89685-2.39298 1.22033l-.935513.438155c-.466923.225924-1.188986.482655-2.15785.76677-1.294043.37825-2.2279.518598-3.260122.491213-.395217-.01027-.8488-.053058-1.157302-.106116-.278486-.047923-.4686-.104404-.768755-.225924-.423566-.169443-.466923-.181424-.658695-.169443-.086714.005135-.260143.03423-.383544.061616-.280154.06504-.391882.080443-.715393.104404-.33185.023962-1.04057.023962-1.285705.001712-.803774-.07702-1.56586-.294385-2.091147-.595617-.407-.23277-.653692-.434732-1.160637-.946483-.176764-.178-.273483-.468963-.263478-.783887.003335-.15575.011673-.196827.046692-.267.053363-.107827.136742-.15575.26848-.15575.218453 0 .25514.095846.17176.458694-.060033.260155-.065036.486078-.010005.590482s.3452.3988.53696.54427c.20678.159174.617005.41077.908832.556252.35186.178.653692.270424 1.11728.34402.230126.035942.305167.039365.908832.037654l1.050576-.037654.667033-.092423c-.890488-.534-1.315722-.859195-1.752628-1.333292-.398552-.4313-.638684-.74452-.88215-1.146734-.3452-.569944-.4836-1.049176-.46192-1.59858.033352-.835233.42023-1.5866 1.0956-2.12916.105058-.085577.37854-.224212.525288-.267.355195-.104404.918837-.14548 1.100604-.07873zm10.172247 3.233105c-.533626.03423-1.073922.157462-1.91772.434732-.623675.205385-1.00055.379963-1.83434.85235-.722063.40906-2.858235 1.377792-3.231773 1.46337-.066703.015404-.3452.106116-.62034.20025l-1.24735.393655c-.106725.029096-.195107.059904-.195107.06675s.02835.018827.0617.023962.170093.0445.300165.085577c.581986.184847 1.072255.249885 1.891037.248174.513615 0 .725398-.01027 1.28237-.070173.445244-.046212.700384-.090712.983873-.169443l2.2679-.723983c.105058-.051346.258475-.114673.341854-.140347.411893-.128366 1.574197-.696598 3.101702-1.513004l.670368-.397078c.066703-.05477.13174-.10098.143412-.10098.0417 0 .678706-.371405.678706-.395366 0-.006846-.050027-.02054-.113396-.03252l-.395217-.094135c-.340187-.090712-.563643-.126654-.908832-.14548-.313505-.015404-.8955-.01027-1.259024.013692zm3.463567.203674c-.058365.015404-.098387.03252-.091717.039366s.100055.041077.205113.07702.2418.1.3035.12152l.23346.107827.355195.162597c.333516.160885.363533.152327.09672-.027385l-.53863-.338886-.258475-.157462c-.056698-.03423-.126736-.030808-.305167.015404zm.788766.005135c.00667.01027.045025.035942.088382.058192s.093385.058192.111728.07873c.040022.0445.120066.090712.14508.082154.02-.006846-.1651-.15575-.256808-.207097-.060033-.03252-.105058-.039365-.088382-.01198z"/></svg>