<svg xmlns="http://www.w3.org/2000/svg" width="174" height="31" viewBox="110 79 174 31" fill-rule="evenodd"><path d="M203.454 81.412c-.346-1.354-1.435-2.2-2.932-2.374a3.52 3.52 0 0 0-.38-.021c-1.302 0-2.228.764-2.758 1.807-.553-1.1-1.498-1.796-2.874-1.796l-.28.01c-1.37.1-2.546.913-2.916 2.517-.667 2.884 2.5 5.833 6.07 8.702 3.808-2.85 6.78-6.07 6.07-8.844zM169 99.2c3.586 2.016 6.806 1.637 9.65-1.196.608-.605 1.137-1.286 1.6-2.003 3.075-4.656 6.478-7.854 10.68-4.95 1.003.693 1.496 1.595 1.554 2.622h1.43l-1 1.015c1.885 7.03-.47 11.258-5.64 13.628-9.945 4.152-16.8.474-18.275-9.116z" fill="#fff"/><path d="M173.01 104.02c4.023.402 7.583-2.04 9.24-3.705 2.41-2.367 5.45-2.07 6.63 0 1.57 2.752-.906 6.17-4.29 7.202-5.57 1.7-9.317-.018-11.582-3.497z" fill="#482683"/><path d="M226 99.2c-3.586 2.016-6.806 1.637-9.65-1.196-.608-.605-1.137-1.286-1.6-2.003-3.075-4.656-6.478-7.854-10.68-4.95-1.003.693-1.496 1.595-1.554 2.622h-1.43l1 1.015c-1.885 7.03.47 11.258 5.64 13.628 9.945 4.152 16.8.474 18.275-9.116z" fill="#fff"/><path d="M222 104.02c-4.023.402-7.583-2.04-9.24-3.705-2.41-2.367-5.45-2.07-6.63 0-1.57 2.752.906 6.17 4.29 7.202 5.57 1.7 9.317-.018 11.582-3.497z" fill="#482683"/><path d="M271.113 91a3.91 3.91 0 0 0-.86.43c-.8.527-1.192 1.113-1.53 2.293l-.158.507c-.028.068-.052.226-.052.346 0 .43.307.828.85 1.106a2.08 2.08 0 0 0 1.013.25c.382 0 .572-.065.747-.253a.6.6 0 0 0 .179-.387c.03-.188.03-.274-.003-.383-.093-.315-.3-.346-.968-.147-.6.18-.782.205-.954.13s-.245-.212-.27-.493c-.038-.46.13-1.106.43-1.65a3.61 3.61 0 0 1 1.013-1.058c.6-.35 1.233-.452 2.004-.33 1.643.264 3.058 1.578 3.54 3.286a4.36 4.36 0 0 1 .203 1.027c.083.856-.045 1.633-.375 2.293-.165.332-.38.64-1.013 1.47-1.38 1.794-2.077 2.52-3.306 3.437-1.002.746-1.688 1.102-2.128 1.102-.4 0-.827-.116-2.52-.67l-5.33-1.975-3.72-1.756-2.152-1.037c-2-.883-3.733-1.328-5.7-1.48-.696-.05-2.442-.024-3.26.055-.592.055-.73.082-1.636.288-.9.202-1.663.267-1.877.157-.124-.062-.134-.144-.024-.188 1.774-.722 2.27-.893 3.24-1.116 1.74-.397 3.05-.558 4.728-.585 2.717-.045 4.963.274 7.93 1.126 1.157.332 2.1.705 3.985 1.56l3.55 1.465c.413.154 1.347.428 1.746.5.458.092 1.037.13 1.464.086l.86-.068c.77-.058 1.236-.2 1.698-.558.4-.294.623-.654.603-.924-.028-.38-.513-.246-1.267.346a3.34 3.34 0 0 1-1.188.633l-.448.144-.7-.003c-.623 0-.727-.01-1.085-.092-.95-.223-1.9-.558-3.688-1.318l-1.667-.702-.995-.435c-1.405-.654-2.438-1.013-4.102-1.42a23.54 23.54 0 0 0-2.418-.462 20.93 20.93 0 0 0-3.354-.264c-2.624-.04-4.215.154-6.695.8a9.03 9.03 0 0 0-2.187.804c-.95.448-1.1.496-1.73.527-.468.024-.52.034-.723.134-.393.192-.572.414-.868 1.075-.14.315-.358.544-.592.623-.18.058-.472.288-.95.73-.43.397-.42.38-.327.56.103.195.217.216.417.072.424-.3 1.405-.828 1.543-.828.1 0 .203.068.255.188s.262.288.506.394.734.178 1.247.185c.45.003.492-.003.65-.082.2-.106.3-.2.317-.414.017-.137.01-.17-.052-.233-.096-.096-.158-.082-.678.12-.7.27-.964.3-1.174.14a1.94 1.94 0 0 0-.289-.164c-.5-.23-.358-.53.313-.72.138-.04.54-.205.892-.373 1.23-.575 1.66-.72 1.956-.647.386.092.93.397 1.732.972.162.116.496.325.74.47.823.472 3.496 1.794 4.942 2.44l1.932.876c.964.452 2.456.965 4.456 1.534 2.672.757 4.6 1.037 6.733.982.816-.02 1.753-.106 2.4-.212.575-.096.968-.2 1.588-.452.875-.34.964-.363 1.36-.34.18.01.537.068.792.123a7.91 7.91 0 0 0 1.477.209c.685.048 2.15.048 2.655.003 1.66-.154 3.234-.6 4.32-1.2.84-.466 1.35-.87 2.397-1.893.365-.356.565-.938.544-1.568-.007-.312-.024-.394-.096-.534-.1-.216-.282-.312-.554-.312-.45 0-.527.192-.355.917.124.52.134.972.02 1.18-.107.202-.713.798-1.1 1.1a14.02 14.02 0 0 1-1.877 1.113c-.727.356-1.35.54-2.307.688-.475.072-.63.08-1.877.075-1.133 0-1.495-.014-2.17-.075l-1.378-.185c1.84-1.068 2.717-1.718 3.62-2.667.823-.863 1.32-1.5 1.822-2.293.713-1.14 1-2.098.954-3.197-.07-1.67-.868-3.173-2.263-4.258-.217-.17-.782-.448-1.085-.534-.734-.2-1.898-.3-2.273-.157zm-21.008 6.466c1.102.068 2.218.315 3.96.87 1.288.4 2.066.76 3.788 1.705 1.5.818 5.903 2.756 6.674 2.927.138.03.713.212 1.28.4l2.576.787c.22.058.403.12.403.134s-.06.038-.127.048-.35.1-.62.17c-1.202.37-2.214.5-3.905.496a20.41 20.41 0 0 1-2.648-.14c-.92-.092-1.446-.18-2.032-.34l-4.684-1.448a5.87 5.87 0 0 0-.706-.28c-.85-.257-3.25-1.393-6.406-3.026l-1.384-.794-.296-.202c-.086 0-1.402-.743-1.402-.8 0-.014.103-.04.234-.065l.816-.188c.703-.18 1.164-.253 1.877-.3a29.02 29.02 0 0 1 2.6.027zm-7.153.407c.12.03.203.065.2.08a4.03 4.03 0 0 1-.424.154c-.214.068-.5.178-.627.243s-.344.16-.482.216l-.734.325c-.7.322-.75.305-.2-.055l1.112-.678.534-.315c.117-.068.262-.062.63.03zm-1.63.01c-.014.02-.093.072-.183.116a.98.98 0 0 0-.231.157c-.083.1-.248.18-.3.164-.04-.014.34-.312.53-.414.124-.065.217-.08.183-.024zM122.887 91a3.91 3.91 0 0 1 .86.43c.8.527 1.192 1.113 1.53 2.293l.158.507c.028.068.052.226.052.346 0 .43-.307.828-.85 1.106a2.08 2.08 0 0 1-1.013.25c-.382 0-.572-.065-.747-.253a.6.6 0 0 1-.179-.387c-.03-.188-.03-.274.003-.383.093-.315.3-.346.968-.147.6.18.782.205.954.13s.245-.212.27-.493c.038-.46-.13-1.106-.43-1.65a3.61 3.61 0 0 0-1.013-1.058c-.6-.35-1.233-.452-2.004-.33-1.643.264-3.058 1.578-3.54 3.286a4.36 4.36 0 0 0-.203 1.027c-.083.856.045 1.633.375 2.293.165.332.38.64 1.013 1.47 1.38 1.794 2.077 2.52 3.306 3.437 1.002.746 1.688 1.102 2.128 1.102.4 0 .827-.116 2.52-.67l5.33-1.975 3.72-1.756 2.152-1.037c2-.883 3.733-1.328 5.7-1.48.696-.05 2.442-.024 3.26.055.592.055.73.082 1.636.288.9.202 1.663.267 1.877.157.124-.062.134-.144.024-.188-1.774-.722-2.27-.893-3.24-1.116-1.74-.397-3.05-.558-4.728-.585-2.717-.045-4.963.274-7.93 1.126-1.157.332-2.1.705-3.985 1.56l-3.55 1.465c-.413.154-1.347.428-1.746.5-.458.092-1.037.13-1.464.086l-.86-.068c-.77-.058-1.236-.2-1.698-.558-.4-.294-.623-.654-.603-.924.028-.38.513-.246 1.267.346a3.34 3.34 0 0 0 1.188.633l.448.144.7-.003c.623 0 .727-.01 1.085-.092.95-.223 1.9-.558 3.688-1.318l1.667-.702.995-.435c1.405-.654 2.438-1.013 4.102-1.42a23.54 23.54 0 0 1 2.418-.462 20.93 20.93 0 0 1 3.354-.264c2.624-.04 4.215.154 6.695.8a9.03 9.03 0 0 1 2.187.804c.95.448 1.1.496 1.73.527.468.024.52.034.723.134.393.192.572.414.868 1.075.14.315.358.544.592.623.18.058.472.288.95.73.43.397.42.38.327.56-.103.195-.217.216-.417.072-.424-.3-1.405-.828-1.543-.828-.1 0-.203.068-.255.188s-.262.288-.506.394-.734.178-1.247.185c-.45.003-.492-.003-.65-.082-.2-.106-.3-.2-.317-.414-.017-.137-.01-.17.052-.233.096-.096.158-.082.678.12.7.27.964.3 1.174.14a1.94 1.94 0 0 1 .289-.164c.5-.23.358-.53-.313-.72-.138-.04-.54-.205-.892-.373-1.23-.575-1.66-.72-1.956-.647-.386.092-.93.397-1.732.972-.162.116-.496.325-.74.47-.823.472-3.496 1.794-4.942 2.44l-1.932.876c-.964.452-2.456.965-4.456 1.534-2.672.757-4.6 1.037-6.733.982-.816-.02-1.753-.106-2.4-.212-.575-.096-.968-.2-1.588-.452-.875-.34-.964-.363-1.36-.34-.18.01-.537.068-.792.123a7.91 7.91 0 0 1-1.477.209c-.685.048-2.15.048-2.655.003-1.66-.154-3.234-.6-4.32-1.2-.84-.466-1.35-.87-2.397-1.893-.365-.356-.565-.938-.544-1.568.007-.312.024-.394.096-.534.1-.216.282-.312.554-.312.45 0 .527.192.355.917-.124.52-.134.972-.02 1.18.107.202.713.798 1.1 1.1a14.02 14.02 0 0 0 1.877 1.113c.727.356 1.35.54 2.307.688.475.072.63.08 1.877.075l2.17-.075 1.378-.185c-1.84-1.068-2.717-1.718-3.62-2.667-.823-.863-1.32-1.5-1.822-2.293-.713-1.14-1-2.098-.954-3.197.07-1.67.868-3.173 2.263-4.258.217-.17.782-.448 1.085-.534.734-.2 1.898-.3 2.273-.157zm21.008 6.466c-1.102.068-2.218.315-3.96.87-1.288.4-2.066.76-3.788 1.705-1.5.818-5.903 2.756-6.674 2.927-.138.03-.713.212-1.28.4l-2.576.787c-.22.058-.403.12-.403.134s.06.038.127.048.35.1.62.17c1.202.37 2.214.5 3.905.496a20.41 20.41 0 0 0 2.648-.14c.92-.092 1.446-.18 2.032-.34l4.684-1.448a5.87 5.87 0 0 1 .706-.28c.85-.257 3.25-1.393 6.406-3.026l1.384-.794.296-.202c.086 0 1.402-.743 1.402-.8 0-.014-.103-.04-.234-.065l-.816-.188c-.703-.18-1.164-.253-1.877-.3a29.02 29.02 0 0 0-2.6.027zm7.153.407c-.12.03-.203.065-.2.08a4.03 4.03 0 0 0 .424.154c.214.068.5.178.627.243s.344.16.482.216l.734.325c.7.322.75.305.2-.055l-1.112-.678-.534-.315c-.117-.068-.262-.062-.63.03zm1.63.01c.014.02.093.072.183.116a.98.98 0 0 1 .231.157c.083.1.248.18.3.164.04-.014-.34-.312-.53-.414-.124-.065-.217-.08-.183-.024z" fill="#fff"/></svg>