<?xml version="1.0" encoding="UTF-8" standalone="no"?>
<!DOCTYPE svg PUBLIC "-//W3C//DTD SVG 1.1//EN"
 "http://www.w3.org/Graphics/SVG/1.1/DTD/svg11.dtd">
<!-- Generated by graphviz version 2.47.1 (20210515.0534)
 -->
<!-- Title: Commands Pages: 1 -->
<svg width="557pt" height="214pt"
 viewBox="0.00 0.00 556.50 214.00" xmlns="http://www.w3.org/2000/svg" xmlns:xlink="http://www.w3.org/1999/xlink">
<g id="graph0" class="graph" transform="scale(1 1) rotate(0) translate(4 210)">
<title>Commands</title>
<polygon fill="white" stroke="transparent" points="-4,4 -4,-210 552.5,-210 552.5,4 -4,4"/>
<!-- AuthenticateInviteCommand -->
<g id="node1" class="node">
<title>AuthenticateInviteCommand</title>
<polygon fill="none" stroke="black" points="13.5,-161.5 13.5,-197.5 123.5,-197.5 123.5,-161.5 13.5,-161.5"/>
<text text-anchor="middle" x="68.5" y="-186.6" font-family="Bitstream Vera Sans" font-size="8.00">AuthenticateInviteCommand</text>
<polyline fill="none" stroke="black" points="13.5,-179.5 123.5,-179.5 "/>
<text text-anchor="start" x="21.5" y="-168.6" font-family="Bitstream Vera Sans" font-size="8.00">code: string</text>
</g>
<!-- AuthenticateInviteCommandHandler -->
<g id="node2" class="node">
<title>AuthenticateInviteCommandHandler</title>
<polygon fill="none" stroke="black" points="0,-80.5 0,-116.5 137,-116.5 137,-80.5 0,-80.5"/>
<text text-anchor="middle" x="68.5" y="-96.6" font-family="Bitstream Vera Sans" font-size="8.00">AuthenticateInviteCommandHandler</text>
</g>
<!-- AuthenticateInviteCommand&#45;&gt;AuthenticateInviteCommandHandler -->
<g id="edge1" class="edge">
<title>AuthenticateInviteCommand&#45;&gt;AuthenticateInviteCommandHandler</title>
<path fill="none" stroke="black" d="M68.5,-161.36C68.5,-151.21 68.5,-138.13 68.5,-126.62"/>
<polygon fill="black" stroke="black" points="72,-126.61 68.5,-116.61 65,-126.61 72,-126.61"/>
</g>
<!-- CreateFoodChoiceCommand -->
<g id="node3" class="node">
<title>CreateFoodChoiceCommand</title>
<polygon fill="none" stroke="black" points="168,-153.5 168,-205.5 271,-205.5 271,-153.5 168,-153.5"/>
<text text-anchor="middle" x="219.5" y="-195.1" font-family="Bitstream Vera Sans" font-size="8.00">CreateFoodChoiceCommand</text>
<polyline fill="none" stroke="black" points="168,-188.5 271,-188.5 "/>
<text text-anchor="start" x="176" y="-178.1" font-family="Bitstream Vera Sans" font-size="8.00">guestType: string</text>
<text text-anchor="start" x="176" y="-169.1" font-family="Bitstream Vera Sans" font-size="8.00">course: string</text>
<text text-anchor="start" x="176" y="-160.1" font-family="Bitstream Vera Sans" font-size="8.00">name: string</text>
</g>
<!-- CreateFoodChoiceCommandHandler -->
<g id="node4" class="node">
<title>CreateFoodChoiceCommandHandler</title>
<polygon fill="none" stroke="black" points="155,-80.5 155,-116.5 284,-116.5 284,-80.5 155,-80.5"/>
<text text-anchor="middle" x="219.5" y="-96.6" font-family="Bitstream Vera Sans" font-size="8.00">CreateFoodChoiceCommandHandler</text>
</g>
<!-- CreateFoodChoiceCommand&#45;&gt;CreateFoodChoiceCommandHandler -->
<g id="edge2" class="edge">
<title>CreateFoodChoiceCommand&#45;&gt;CreateFoodChoiceCommandHandler</title>
<path fill="none" stroke="black" d="M219.5,-153.07C219.5,-144.7 219.5,-135.35 219.5,-126.84"/>
<polygon fill="black" stroke="black" points="223,-126.65 219.5,-116.65 216,-126.65 223,-126.65"/>
</g>
<!-- CreateInviteCommand -->
<g id="node5" class="node">
<title>CreateInviteCommand</title>
<polygon fill="none" stroke="black" points="313.5,-158 313.5,-201 405.5,-201 405.5,-158 313.5,-158"/>
<text text-anchor="middle" x="359.5" y="-190.6" font-family="Bitstream Vera Sans" font-size="8.00">CreateInviteCommand</text>
<polyline fill="none" stroke="black" points="313.5,-184 405.5,-184 "/>
<text text-anchor="start" x="321.5" y="-173.6" font-family="Bitstream Vera Sans" font-size="8.00">type: string</text>
<text text-anchor="start" x="321.5" y="-164.6" font-family="Bitstream Vera Sans" font-size="8.00">invitedGuests: array</text>
</g>
<!-- CreateInviteCommandHandler -->
<g id="node6" class="node">
<title>CreateInviteCommandHandler</title>
<polygon fill="none" stroke="black" points="302.5,-80.5 302.5,-116.5 416.5,-116.5 416.5,-80.5 302.5,-80.5"/>
<text text-anchor="middle" x="359.5" y="-96.6" font-family="Bitstream Vera Sans" font-size="8.00">CreateInviteCommandHandler</text>
</g>
<!-- CreateInviteCommand&#45;&gt;CreateInviteCommandHandler -->
<g id="edge3" class="edge">
<title>CreateInviteCommand&#45;&gt;CreateInviteCommandHandler</title>
<path fill="none" stroke="black" d="M359.5,-157.74C359.5,-148.24 359.5,-136.86 359.5,-126.69"/>
<polygon fill="black" stroke="black" points="363,-126.65 359.5,-116.65 356,-126.65 363,-126.65"/>
</g>
<!-- InviteCreated -->
<g id="node7" class="node">
<title>InviteCreated</title>
<polygon fill="none" stroke="black" points="327,-4 327,-40 392,-40 392,-4 327,-4"/>
<text text-anchor="middle" x="359.5" y="-29.1" font-family="Bitstream Vera Sans" font-size="8.00">InviteCreated</text>
<polyline fill="none" stroke="black" points="327,-22 392,-22 "/>
<text text-anchor="start" x="335" y="-11.1" font-family="Bitstream Vera Sans" font-size="8.00">id: string</text>
</g>
<!-- CreateInviteCommandHandler&#45;&gt;InviteCreated -->
<g id="edge4" class="edge">
<title>CreateInviteCommandHandler&#45;&gt;InviteCreated</title>
<path fill="none" stroke="black" d="M359.5,-80.22C359.5,-71.38 359.5,-60.41 359.5,-50.45"/>
<polygon fill="black" stroke="black" points="363,-50.19 359.5,-40.19 356,-50.19 363,-50.19"/>
</g>
<!-- SubmitInviteCommand -->
<g id="node8" class="node">
<title>SubmitInviteCommand</title>
<polygon fill="none" stroke="black" points="438,-153.5 438,-205.5 545,-205.5 545,-153.5 438,-153.5"/>
<text text-anchor="middle" x="491.5" y="-195.1" font-family="Bitstream Vera Sans" font-size="8.00">SubmitInviteCommand</text>
<polyline fill="none" stroke="black" points="438,-188.5 545,-188.5 "/>
<text text-anchor="start" x="446" y="-178.1" font-family="Bitstream Vera Sans" font-size="8.00">id: string</text>
<text text-anchor="start" x="446" y="-169.1" font-family="Bitstream Vera Sans" font-size="8.00">chosenFoodChoices: array</text>
<text text-anchor="start" x="446" y="-160.1" font-family="Bitstream Vera Sans" font-size="8.00">songChoices: array</text>
</g>
<!-- SubmitInviteCommandHandler -->
<g id="node9" class="node">
<title>SubmitInviteCommandHandler</title>
<polygon fill="none" stroke="black" points="434.5,-80.5 434.5,-116.5 548.5,-116.5 548.5,-80.5 434.5,-80.5"/>
<text text-anchor="middle" x="491.5" y="-96.6" font-family="Bitstream Vera Sans" font-size="8.00">SubmitInviteCommandHandler</text>
</g>
<!-- SubmitInviteCommand&#45;&gt;SubmitInviteCommandHandler -->
<g id="edge5" class="edge">
<title>SubmitInviteCommand&#45;&gt;SubmitInviteCommandHandler</title>
<path fill="none" stroke="black" d="M491.5,-153.07C491.5,-144.7 491.5,-135.35 491.5,-126.84"/>
<polygon fill="black" stroke="black" points="495,-126.65 491.5,-116.65 488,-126.65 495,-126.65"/>
</g>
<!-- InviteSubmitted -->
<g id="node10" class="node">
<title>InviteSubmitted</title>
<polygon fill="none" stroke="black" points="455,-0.5 455,-43.5 528,-43.5 528,-0.5 455,-0.5"/>
<text text-anchor="middle" x="491.5" y="-33.1" font-family="Bitstream Vera Sans" font-size="8.00">InviteSubmitted</text>
<polyline fill="none" stroke="black" points="455,-26.5 528,-26.5 "/>
<text text-anchor="start" x="463" y="-16.1" font-family="Bitstream Vera Sans" font-size="8.00">id: string</text>
<text text-anchor="start" x="463" y="-7.1" font-family="Bitstream Vera Sans" font-size="8.00">guests: array</text>
</g>
<!-- SubmitInviteCommandHandler&#45;&gt;InviteSubmitted -->
<g id="edge6" class="edge">
<title>SubmitInviteCommandHandler&#45;&gt;InviteSubmitted</title>
<path fill="none" stroke="black" d="M491.5,-80.22C491.5,-72.37 491.5,-62.85 491.5,-53.84"/>
<polygon fill="black" stroke="black" points="495,-53.63 491.5,-43.63 488,-53.63 495,-53.63"/>
</g>
</g>
</svg>
