<?xml version="1.0" encoding="UTF-8" standalone="no"?>
<!DOCTYPE svg PUBLIC "-//W3C//DTD SVG 1.1//EN"
 "http://www.w3.org/Graphics/SVG/1.1/DTD/svg11.dtd">
<!-- Generated by graphviz version 2.47.1 (20210515.0534)
 -->
<!-- Title: Commands Pages: 1 -->
<svg width="557pt" height="134pt"
 viewBox="0.00 0.00 556.50 134.00" xmlns="http://www.w3.org/2000/svg" xmlns:xlink="http://www.w3.org/1999/xlink">
<g id="graph0" class="graph" transform="scale(1 1) rotate(0) translate(4 130)">
<title>Commands</title>
<polygon fill="white" stroke="transparent" points="-4,4 -4,-130 552.5,-130 552.5,4 -4,4"/>
<!-- AuthenticateInviteCommand -->
<g id="node1" class="node">
<title>AuthenticateInviteCommand</title>
<polygon fill="none" stroke="black" points="13.5,-81.5 13.5,-117.5 123.5,-117.5 123.5,-81.5 13.5,-81.5"/>
<text text-anchor="middle" x="68.5" y="-106.6" font-family="Bitstream Vera Sans" font-size="8.00">AuthenticateInviteCommand</text>
<polyline fill="none" stroke="black" points="13.5,-99.5 123.5,-99.5 "/>
<text text-anchor="start" x="21.5" y="-88.6" font-family="Bitstream Vera Sans" font-size="8.00">code: string</text>
</g>
<!-- AuthenticateInviteCommandHandler -->
<g id="node2" class="node">
<title>AuthenticateInviteCommandHandler</title>
<polygon fill="none" stroke="black" points="0,-0.5 0,-36.5 137,-36.5 137,-0.5 0,-0.5"/>
<text text-anchor="middle" x="68.5" y="-16.6" font-family="Bitstream Vera Sans" font-size="8.00">AuthenticateInviteCommandHandler</text>
</g>
<!-- AuthenticateInviteCommand&#45;&gt;AuthenticateInviteCommandHandler -->
<g id="edge1" class="edge">
<title>AuthenticateInviteCommand&#45;&gt;AuthenticateInviteCommandHandler</title>
<path fill="none" stroke="black" d="M68.5,-81.36C68.5,-71.21 68.5,-58.13 68.5,-46.62"/>
<polygon fill="black" stroke="black" points="72,-46.61 68.5,-36.61 65,-46.61 72,-46.61"/>
</g>
<!-- CreateFoodChoiceCommand -->
<g id="node3" class="node">
<title>CreateFoodChoiceCommand</title>
<polygon fill="none" stroke="black" points="168,-73.5 168,-125.5 271,-125.5 271,-73.5 168,-73.5"/>
<text text-anchor="middle" x="219.5" y="-115.1" font-family="Bitstream Vera Sans" font-size="8.00">CreateFoodChoiceCommand</text>
<polyline fill="none" stroke="black" points="168,-108.5 271,-108.5 "/>
<text text-anchor="start" x="176" y="-98.1" font-family="Bitstream Vera Sans" font-size="8.00">guestType: string</text>
<text text-anchor="start" x="176" y="-89.1" font-family="Bitstream Vera Sans" font-size="8.00">course: string</text>
<text text-anchor="start" x="176" y="-80.1" font-family="Bitstream Vera Sans" font-size="8.00">name: string</text>
</g>
<!-- CreateFoodChoiceCommandHandler -->
<g id="node4" class="node">
<title>CreateFoodChoiceCommandHandler</title>
<polygon fill="none" stroke="black" points="155,-0.5 155,-36.5 284,-36.5 284,-0.5 155,-0.5"/>
<text text-anchor="middle" x="219.5" y="-16.6" font-family="Bitstream Vera Sans" font-size="8.00">CreateFoodChoiceCommandHandler</text>
</g>
<!-- CreateFoodChoiceCommand&#45;&gt;CreateFoodChoiceCommandHandler -->
<g id="edge2" class="edge">
<title>CreateFoodChoiceCommand&#45;&gt;CreateFoodChoiceCommandHandler</title>
<path fill="none" stroke="black" d="M219.5,-73.07C219.5,-64.7 219.5,-55.35 219.5,-46.84"/>
<polygon fill="black" stroke="black" points="223,-46.65 219.5,-36.65 216,-46.65 223,-46.65"/>
</g>
<!-- CreateInviteCommand -->
<g id="node5" class="node">
<title>CreateInviteCommand</title>
<polygon fill="none" stroke="black" points="313.5,-78 313.5,-121 405.5,-121 405.5,-78 313.5,-78"/>
<text text-anchor="middle" x="359.5" y="-110.6" font-family="Bitstream Vera Sans" font-size="8.00">CreateInviteCommand</text>
<polyline fill="none" stroke="black" points="313.5,-104 405.5,-104 "/>
<text text-anchor="start" x="321.5" y="-93.6" font-family="Bitstream Vera Sans" font-size="8.00">type: string</text>
<text text-anchor="start" x="321.5" y="-84.6" font-family="Bitstream Vera Sans" font-size="8.00">invitedGuests: array</text>
</g>
<!-- CreateInviteCommandHandler -->
<g id="node6" class="node">
<title>CreateInviteCommandHandler</title>
<polygon fill="none" stroke="black" points="302.5,-0.5 302.5,-36.5 416.5,-36.5 416.5,-0.5 302.5,-0.5"/>
<text text-anchor="middle" x="359.5" y="-16.6" font-family="Bitstream Vera Sans" font-size="8.00">CreateInviteCommandHandler</text>
</g>
<!-- CreateInviteCommand&#45;&gt;CreateInviteCommandHandler -->
<g id="edge3" class="edge">
<title>CreateInviteCommand&#45;&gt;CreateInviteCommandHandler</title>
<path fill="none" stroke="black" d="M359.5,-77.74C359.5,-68.24 359.5,-56.86 359.5,-46.69"/>
<polygon fill="black" stroke="black" points="363,-46.65 359.5,-36.65 356,-46.65 363,-46.65"/>
</g>
<!-- SubmitInviteCommand -->
<g id="node7" class="node">
<title>SubmitInviteCommand</title>
<polygon fill="none" stroke="black" points="438,-73.5 438,-125.5 545,-125.5 545,-73.5 438,-73.5"/>
<text text-anchor="middle" x="491.5" y="-115.1" font-family="Bitstream Vera Sans" font-size="8.00">SubmitInviteCommand</text>
<polyline fill="none" stroke="black" points="438,-108.5 545,-108.5 "/>
<text text-anchor="start" x="446" y="-98.1" font-family="Bitstream Vera Sans" font-size="8.00">id: string</text>
<text text-anchor="start" x="446" y="-89.1" font-family="Bitstream Vera Sans" font-size="8.00">chosenFoodChoices: array</text>
<text text-anchor="start" x="446" y="-80.1" font-family="Bitstream Vera Sans" font-size="8.00">songChoices: array</text>
</g>
<!-- SubmitInviteCommandHandler -->
<g id="node8" class="node">
<title>SubmitInviteCommandHandler</title>
<polygon fill="none" stroke="black" points="434.5,-0.5 434.5,-36.5 548.5,-36.5 548.5,-0.5 434.5,-0.5"/>
<text text-anchor="middle" x="491.5" y="-16.6" font-family="Bitstream Vera Sans" font-size="8.00">SubmitInviteCommandHandler</text>
</g>
<!-- SubmitInviteCommand&#45;&gt;SubmitInviteCommandHandler -->
<g id="edge4" class="edge">
<title>SubmitInviteCommand&#45;&gt;SubmitInviteCommandHandler</title>
<path fill="none" stroke="black" d="M491.5,-73.07C491.5,-64.7 491.5,-55.35 491.5,-46.84"/>
<polygon fill="black" stroke="black" points="495,-46.65 491.5,-36.65 488,-46.65 495,-46.65"/>
</g>
</g>
</svg>
