<?xml version="1.0" encoding="UTF-8" standalone="no"?>
<!DOCTYPE svg PUBLIC "-//W3C//DTD SVG 1.1//EN"
 "http://www.w3.org/Graphics/SVG/1.1/DTD/svg11.dtd">
<!-- Generated by graphviz version 2.47.1 (20210515.0534)
 -->
<!-- Title: Events Pages: 1 -->
<svg width="199pt" height="284pt"
 viewBox="0.00 0.00 199.00 284.00" xmlns="http://www.w3.org/2000/svg" xmlns:xlink="http://www.w3.org/1999/xlink">
<g id="graph0" class="graph" transform="scale(1 1) rotate(0) translate(4 280)">
<title>Events</title>
<polygon fill="white" stroke="transparent" points="-4,4 -4,-280 195,-280 195,4 -4,4"/>
<!-- food_choice.created -->
<g id="node1" class="node">
<title>food_choice.created</title>
<polygon fill="none" stroke="black" points="0,-196.5 0,-275.5 88,-275.5 88,-196.5 0,-196.5"/>
<text text-anchor="middle" x="44" y="-265.1" font-family="Bitstream Vera Sans" font-size="8.00">food_choice.created</text>
<polyline fill="none" stroke="black" points="0,-258.5 88,-258.5 "/>
<text text-anchor="start" x="8" y="-248.1" font-family="Bitstream Vera Sans" font-size="8.00">aggregateVersion</text>
<text text-anchor="start" x="8" y="-239.1" font-family="Bitstream Vera Sans" font-size="8.00">id</text>
<text text-anchor="start" x="8" y="-230.1" font-family="Bitstream Vera Sans" font-size="8.00">guestType</text>
<text text-anchor="start" x="8" y="-221.1" font-family="Bitstream Vera Sans" font-size="8.00">course</text>
<text text-anchor="start" x="8" y="-212.1" font-family="Bitstream Vera Sans" font-size="8.00">name</text>
<text text-anchor="start" x="8" y="-203.1" font-family="Bitstream Vera Sans" font-size="8.00">occurredAt</text>
</g>
<!-- invite.created -->
<g id="node2" class="node">
<title>invite.created</title>
<polygon fill="none" stroke="black" points="106.5,-196.5 106.5,-275.5 183.5,-275.5 183.5,-196.5 106.5,-196.5"/>
<text text-anchor="middle" x="145" y="-265.1" font-family="Bitstream Vera Sans" font-size="8.00">invite.created</text>
<polyline fill="none" stroke="black" points="106.5,-258.5 183.5,-258.5 "/>
<text text-anchor="start" x="114.5" y="-248.1" font-family="Bitstream Vera Sans" font-size="8.00">aggregateVersion</text>
<text text-anchor="start" x="114.5" y="-239.1" font-family="Bitstream Vera Sans" font-size="8.00">id</text>
<text text-anchor="start" x="114.5" y="-230.1" font-family="Bitstream Vera Sans" font-size="8.00">inviteCode</text>
<text text-anchor="start" x="114.5" y="-221.1" font-family="Bitstream Vera Sans" font-size="8.00">inviteType</text>
<text text-anchor="start" x="114.5" y="-212.1" font-family="Bitstream Vera Sans" font-size="8.00">invitedGuests</text>
<text text-anchor="start" x="114.5" y="-203.1" font-family="Bitstream Vera Sans" font-size="8.00">occurredAt</text>
</g>
<!-- invite.authenticated -->
<g id="node3" class="node">
<title>invite.authenticated</title>
<polygon fill="none" stroke="black" points="99,-107.5 99,-159.5 191,-159.5 191,-107.5 99,-107.5"/>
<text text-anchor="middle" x="145" y="-149.1" font-family="Bitstream Vera Sans" font-size="8.00">invite.authenticated</text>
<polyline fill="none" stroke="black" points="99,-142.5 191,-142.5 "/>
<text text-anchor="start" x="107" y="-132.1" font-family="Bitstream Vera Sans" font-size="8.00">aggregateVersion</text>
<text text-anchor="start" x="107" y="-123.1" font-family="Bitstream Vera Sans" font-size="8.00">id</text>
<text text-anchor="start" x="107" y="-114.1" font-family="Bitstream Vera Sans" font-size="8.00">occurredAt</text>
</g>
<!-- invite.created&#45;&gt;invite.authenticated -->
<g id="edge1" class="edge">
<title>invite.created&#45;&gt;invite.authenticated</title>
<path fill="none" stroke="black" d="M145,-196.43C145,-187.69 145,-178.46 145,-169.86"/>
<polygon fill="black" stroke="black" points="148.5,-169.77 145,-159.77 141.5,-169.77 148.5,-169.77"/>
</g>
<!-- invite.submitted -->
<g id="node4" class="node">
<title>invite.submitted</title>
<polygon fill="none" stroke="black" points="106.5,-0.5 106.5,-70.5 183.5,-70.5 183.5,-0.5 106.5,-0.5"/>
<text text-anchor="middle" x="145" y="-60.1" font-family="Bitstream Vera Sans" font-size="8.00">invite.submitted</text>
<polyline fill="none" stroke="black" points="106.5,-53.5 183.5,-53.5 "/>
<text text-anchor="start" x="114.5" y="-43.1" font-family="Bitstream Vera Sans" font-size="8.00">aggregateVersion</text>
<text text-anchor="start" x="114.5" y="-34.1" font-family="Bitstream Vera Sans" font-size="8.00">id</text>
<text text-anchor="start" x="114.5" y="-25.1" font-family="Bitstream Vera Sans" font-size="8.00">attendingGuests</text>
<text text-anchor="start" x="114.5" y="-16.1" font-family="Bitstream Vera Sans" font-size="8.00">songChoices</text>
<text text-anchor="start" x="114.5" y="-7.1" font-family="Bitstream Vera Sans" font-size="8.00">occurredAt</text>
</g>
<!-- invite.authenticated&#45;&gt;invite.submitted -->
<g id="edge2" class="edge">
<title>invite.authenticated&#45;&gt;invite.submitted</title>
<path fill="none" stroke="black" d="M145,-107.28C145,-99.12 145,-89.83 145,-80.72"/>
<polygon fill="black" stroke="black" points="148.5,-80.58 145,-70.58 141.5,-80.58 148.5,-80.58"/>
</g>
</g>
</svg>
