<?xml version="1.0" encoding="UTF-8" standalone="no"?>
<!DOCTYPE svg PUBLIC "-//W3C//DTD SVG 1.1//EN"
 "http://www.w3.org/Graphics/SVG/1.1/DTD/svg11.dtd">
<!-- Generated by graphviz version 2.47.1 (20210515.0534)
 -->
<!-- Title: Events Pages: 1 -->
<svg width="243pt" height="195pt"
 viewBox="0.00 0.00 242.50 195.00" xmlns="http://www.w3.org/2000/svg" xmlns:xlink="http://www.w3.org/1999/xlink">
<g id="graph0" class="graph" transform="scale(1 1) rotate(0) translate(4 191)">
<title>Events</title>
<polygon fill="white" stroke="transparent" points="-4,4 -4,-191 238.5,-191 238.5,4 -4,4"/>
<!-- food_choice.created -->
<g id="node1" class="node">
<title>food_choice.created</title>
<polygon fill="none" stroke="black" points="0,-107.5 0,-186.5 88,-186.5 88,-107.5 0,-107.5"/>
<text text-anchor="middle" x="44" y="-176.1" font-family="Bitstream Vera Sans" font-size="8.00">food_choice.created</text>
<polyline fill="none" stroke="black" points="0,-169.5 88,-169.5 "/>
<text text-anchor="start" x="8" y="-159.1" font-family="Bitstream Vera Sans" font-size="8.00">aggregateVersion</text>
<text text-anchor="start" x="8" y="-150.1" font-family="Bitstream Vera Sans" font-size="8.00">id</text>
<text text-anchor="start" x="8" y="-141.1" font-family="Bitstream Vera Sans" font-size="8.00">guestType</text>
<text text-anchor="start" x="8" y="-132.1" font-family="Bitstream Vera Sans" font-size="8.00">course</text>
<text text-anchor="start" x="8" y="-123.1" font-family="Bitstream Vera Sans" font-size="8.00">name</text>
<text text-anchor="start" x="8" y="-114.1" font-family="Bitstream Vera Sans" font-size="8.00">occurredAt</text>
</g>
<!-- invite.created -->
<g id="node2" class="node">
<title>invite.created</title>
<polygon fill="none" stroke="black" points="106.5,-107.5 106.5,-186.5 183.5,-186.5 183.5,-107.5 106.5,-107.5"/>
<text text-anchor="middle" x="145" y="-176.1" font-family="Bitstream Vera Sans" font-size="8.00">invite.created</text>
<polyline fill="none" stroke="black" points="106.5,-169.5 183.5,-169.5 "/>
<text text-anchor="start" x="114.5" y="-159.1" font-family="Bitstream Vera Sans" font-size="8.00">aggregateVersion</text>
<text text-anchor="start" x="114.5" y="-150.1" font-family="Bitstream Vera Sans" font-size="8.00">id</text>
<text text-anchor="start" x="114.5" y="-141.1" font-family="Bitstream Vera Sans" font-size="8.00">inviteCode</text>
<text text-anchor="start" x="114.5" y="-132.1" font-family="Bitstream Vera Sans" font-size="8.00">inviteType</text>
<text text-anchor="start" x="114.5" y="-123.1" font-family="Bitstream Vera Sans" font-size="8.00">invitedGuests</text>
<text text-anchor="start" x="114.5" y="-114.1" font-family="Bitstream Vera Sans" font-size="8.00">occurredAt</text>
</g>
<!-- invite.authenticated -->
<g id="node3" class="node">
<title>invite.authenticated</title>
<polygon fill="none" stroke="black" points="47,-9.5 47,-61.5 139,-61.5 139,-9.5 47,-9.5"/>
<text text-anchor="middle" x="93" y="-51.1" font-family="Bitstream Vera Sans" font-size="8.00">invite.authenticated</text>
<polyline fill="none" stroke="black" points="47,-44.5 139,-44.5 "/>
<text text-anchor="start" x="55" y="-34.1" font-family="Bitstream Vera Sans" font-size="8.00">aggregateVersion</text>
<text text-anchor="start" x="55" y="-25.1" font-family="Bitstream Vera Sans" font-size="8.00">id</text>
<text text-anchor="start" x="55" y="-16.1" font-family="Bitstream Vera Sans" font-size="8.00">occurredAt</text>
</g>
<!-- invite.created&#45;&gt;invite.authenticated -->
<g id="edge1" class="edge">
<title>invite.created&#45;&gt;invite.authenticated</title>
<path fill="none" stroke="black" d="M126.67,-107.39C121.05,-95.56 114.9,-82.62 109.42,-71.08"/>
<polygon fill="black" stroke="black" points="112.45,-69.29 104.99,-61.76 106.12,-72.29 112.45,-69.29"/>
</g>
<!-- invite.submitted -->
<g id="node4" class="node">
<title>invite.submitted</title>
<polygon fill="none" stroke="black" points="157.5,-0.5 157.5,-70.5 234.5,-70.5 234.5,-0.5 157.5,-0.5"/>
<text text-anchor="middle" x="196" y="-60.1" font-family="Bitstream Vera Sans" font-size="8.00">invite.submitted</text>
<polyline fill="none" stroke="black" points="157.5,-53.5 234.5,-53.5 "/>
<text text-anchor="start" x="165.5" y="-43.1" font-family="Bitstream Vera Sans" font-size="8.00">aggregateVersion</text>
<text text-anchor="start" x="165.5" y="-34.1" font-family="Bitstream Vera Sans" font-size="8.00">id</text>
<text text-anchor="start" x="165.5" y="-25.1" font-family="Bitstream Vera Sans" font-size="8.00">attendingGuests</text>
<text text-anchor="start" x="165.5" y="-16.1" font-family="Bitstream Vera Sans" font-size="8.00">songChoices</text>
<text text-anchor="start" x="165.5" y="-7.1" font-family="Bitstream Vera Sans" font-size="8.00">occurredAt</text>
</g>
<!-- invite.created&#45;&gt;invite.submitted -->
<g id="edge2" class="edge">
<title>invite.created&#45;&gt;invite.submitted</title>
<path fill="none" stroke="black" d="M162.98,-107.39C167.11,-98.53 171.53,-89.04 175.75,-79.99"/>
<polygon fill="black" stroke="black" points="179,-81.29 180.05,-70.75 172.65,-78.34 179,-81.29"/>
</g>
</g>
</svg>
